<?xml version="1.0" encoding="utf-8"?>
<!-- Generator: Adobe Illustrator 17.0.0, SVG Export Plug-In . SVG Version: 6.00 Build 0)  -->
<!DOCTYPE svg PUBLIC "-//W3C//DTD SVG 1.1//EN" "http://www.w3.org/Graphics/SVG/1.1/DTD/svg11.dtd">
<svg version="1.1" id="Vrstva_1" xmlns="http://www.w3.org/2000/svg" xmlns:xlink="http://www.w3.org/1999/xlink" x="0px" y="0px"
	 width="240.013px" height="272px" viewBox="0 0 240.013 272" enable-background="new 0 0 240.013 272" xml:space="preserve">
<g>
	<path fill="#42929C" d="M128.321,2.228l103.378,59.686c5.145,2.97,8.314,8.46,8.314,14.4v119.372c0,5.941-3.17,11.43-8.314,14.4
		l-103.378,59.686c-5.145,2.97-11.484,2.97-16.629,0L8.314,210.086C3.17,207.116,0,201.627,0,195.686V76.314
		c0-5.941,3.17-11.43,8.314-14.4L111.692,2.228C116.837-0.743,123.176-0.743,128.321,2.228z"/>
	<g>
		<path fill="#FFFFFF" d="M180.673,136v36.398c0,10.311-7.888,18.199-18.199,18.199H77.54c-10.311,0-18.199-7.888-18.199-18.199V136
			c5.46,4.248,11.528,6.068,18.199,6.068h84.928C169.144,142.068,175.213,140.248,180.673,136z M59.34,114.769
			c1.82-8.497,9.1-15.168,18.199-15.168h18.199c0-10.311,7.888-18.199,18.199-18.199h12.131c10.311,0,18.199,7.888,18.199,18.199
			h18.199c9.1,0,16.988,6.068,18.199,15.168c-1.211,9.1-9.094,15.162-18.193,15.162H77.54
			C68.44,129.932,61.16,123.261,59.34,114.769z M107.876,99.601h24.268c0-3.64-2.429-6.068-6.068-6.068h-12.131
			C110.298,93.533,107.876,95.962,107.876,99.601z"/>
	</g>
</g>
<g>
</g>
<g>
</g>
<g>
</g>
<g>
</g>
<g>
</g>
<g>
</g>
</svg>
